<svg width="57" height="28" viewBox="0 0 57 28" fill="none" xmlns="http://www.w3.org/2000/svg">
<path d="M18.8636 13.5535H38.1364M17.4188 1.55701H10.6733C10.29 1.55701 9.92233 1.70868 9.65126 1.97865C9.38018 2.24862 9.22789 2.61479 9.22789 2.99659V24.1105C9.22789 24.2995 9.26528 24.4867 9.33792 24.6614C9.41056 24.836 9.51703 24.9947 9.65126 25.1284C9.78548 25.2621 9.94483 25.3681 10.1202 25.4405C10.2956 25.5128 10.4835 25.55 10.6733 25.55H17.4188C17.6086 25.55 17.7966 25.5128 17.972 25.4405C18.1473 25.3681 18.3067 25.2621 18.4409 25.1284C18.5751 24.9947 18.6816 24.836 18.7542 24.6614C18.8269 24.4867 18.8643 24.2995 18.8643 24.1105V2.99659C18.8643 2.61479 18.712 2.24862 18.4409 1.97865C18.1698 1.70868 17.8022 1.55701 17.4188 1.55701ZM46.3279 1.55701H39.5824C39.1991 1.55701 38.8314 1.70868 38.5603 1.97865C38.2893 2.24862 38.137 2.61479 38.137 2.99659V24.1105C38.137 24.2995 38.1744 24.4867 38.247 24.6614C38.3197 24.836 38.4261 24.9947 38.5603 25.1284C38.6946 25.2621 38.8539 25.3681 39.0293 25.4405C39.2047 25.5128 39.3926 25.55 39.5824 25.55H46.3279C46.5177 25.55 46.7057 25.5128 46.881 25.4405C47.0564 25.3681 47.2158 25.2621 47.35 25.1284C47.4842 24.9947 47.5907 24.836 47.6633 24.6614C47.736 24.4867 47.7733 24.2995 47.7733 24.1105V2.99659C47.7733 2.61479 47.6211 2.24862 47.35 1.97865C47.0789 1.70868 46.7113 1.55701 46.3279 1.55701ZM2 19.3118V7.79519C2 7.41339 2.15229 7.04722 2.42336 6.77725C2.69444 6.50728 3.0621 6.35561 3.44545 6.35561H7.78182C8.16518 6.35561 8.53283 6.50728 8.80391 6.77725C9.07498 7.04722 9.22727 7.41339 9.22727 7.79519V19.3118C9.22727 19.6936 9.07498 20.0598 8.80391 20.3298C8.53283 20.5998 8.16518 20.7514 7.78182 20.7514H3.44545C3.0621 20.7514 2.69444 20.5998 2.42336 20.3298C2.15229 20.0598 2 19.6936 2 19.3118ZM55 19.3118V7.79519C55 7.41339 54.8477 7.04722 54.5766 6.77725C54.3056 6.50728 53.9379 6.35561 53.5545 6.35561H49.2182C48.8348 6.35561 48.4672 6.50728 48.1961 6.77725C47.925 7.04722 47.7727 7.41339 47.7727 7.79519V19.3118C47.7727 19.6936 47.925 20.0598 48.1961 20.3298C48.4672 20.5998 48.8348 20.7514 49.2182 20.7514H53.5545C53.9379 20.7514 54.3056 20.5998 54.5766 20.3298C54.8477 20.0598 55 19.6936 55 19.3118Z" stroke="#1D7C82" stroke-width="3" stroke-linecap="round" stroke-linejoin="round"/>
</svg>
