<svg width="38" height="43" viewBox="0 0 38 43" fill="none" xmlns="http://www.w3.org/2000/svg">
<path fill-rule="evenodd" clip-rule="evenodd" d="M34.8659 4.39961C35.4245 4.95642 35.7382 5.71161 35.7382 6.49906V15.4063H32.7601V6.49906H26.8037V9.46814H23.8255V6.49906H11.9127V9.46814H8.93456V6.49906H2.97819V36.1898H8.93456V39.1589H2.97819C2.18832 39.1589 1.43081 38.8461 0.87229 38.2893C0.313772 37.7324 0 36.9773 0 36.1898V6.49906C0 5.71161 0.313772 4.95642 0.87229 4.39961C1.43081 3.8428 2.18832 3.52999 2.97819 3.52999H8.93456V0.560913H11.9127V3.52999H23.8255V0.560913H26.8037V3.52999H32.7601C33.5499 3.52999 34.3074 3.8428 34.8659 4.39961ZM25.3147 42.1279C22.9586 42.1279 20.6554 41.4314 18.6963 40.1264C16.7373 38.8214 15.2104 36.9666 14.3088 34.7965C13.4071 32.6264 13.1712 30.2385 13.6309 27.9347C14.0905 25.6309 15.2251 23.5147 16.8911 21.8538C18.5571 20.1929 20.6798 19.0618 22.9906 18.6035C25.3015 18.1453 27.6967 18.3805 29.8735 19.2794C32.0503 20.1782 33.9108 21.7005 35.2198 23.6535C36.5288 25.6066 37.2275 27.9027 37.2275 30.2516C37.2275 33.4014 35.9724 36.4222 33.7383 38.6494C31.5042 40.8767 28.4742 42.1279 25.3147 42.1279ZM25.3147 21.3444C23.5476 21.3444 21.8202 21.8668 20.3509 22.8455C18.8816 23.8243 17.7365 25.2154 17.0602 26.843C16.384 28.4706 16.2071 30.2615 16.5518 31.9893C16.8966 33.7172 17.7475 35.3043 18.997 36.55C20.2465 37.7957 21.8385 38.644 23.5717 38.9877C25.3048 39.3314 27.1012 39.155 28.7338 38.4808C30.3664 37.8067 31.7618 36.665 32.7435 35.2002C33.7253 33.7354 34.2493 32.0133 34.2493 30.2516C34.2493 27.8893 33.308 25.6237 31.6324 23.9533C29.9568 22.2828 27.6843 21.3444 25.3147 21.3444ZM27.6818 34.7053L23.8251 30.8604V24.3136H26.8032V29.643L29.7814 32.6121L27.6818 34.7053Z" fill="#1D7C82"/>
</svg>
