<svg width="41" height="42" viewBox="0 0 41 42" fill="none" xmlns="http://www.w3.org/2000/svg">
<path d="M32.2213 0.88436C33.5126 0.885666 34.7877 1.16914 35.9559 1.71461C37.1241 2.26008 38.1568 3.05414 38.9804 4.04031C39.804 5.02647 40.3983 6.1805 40.7211 7.4203C41.0438 8.6601 41.0871 9.95519 40.8477 11.2134C40.6084 12.4717 40.0924 13.6622 39.3364 14.7002C38.5804 15.7383 37.603 16.5983 36.4737 17.2193C35.3444 17.8402 34.091 18.2067 32.8027 18.2927C31.5144 18.3787 30.2227 18.1821 29.0197 17.7169L19.0399 30.9012V38.6451H23.4337C23.8221 38.6451 24.1947 38.7981 24.4693 39.0704C24.744 39.3428 24.8983 39.7122 24.8983 40.0974C24.8983 40.4826 24.744 40.852 24.4693 41.1244C24.1947 41.3967 23.8221 41.5497 23.4337 41.5497H11.7168C11.3284 41.5497 10.9559 41.3967 10.6812 41.1244C10.4065 40.852 10.2522 40.4826 10.2522 40.0974C10.2522 39.7122 10.4065 39.3428 10.6812 39.0704C10.9559 38.7981 11.3284 38.6451 11.7168 38.6451H16.1107V30.9012L0.585842 10.3942C0.205566 9.89146 0 9.27993 0 8.65145V8.16637C0 7.78118 0.154306 7.41178 0.428973 7.13941C0.70364 6.86705 1.07617 6.71403 1.46461 6.71403H4.75118L1.75167 2.90891C1.51239 2.60539 1.40451 2.22004 1.45175 1.83764C1.49899 1.45524 1.69749 1.10711 2.00358 0.869836C2.30967 0.632564 2.69827 0.525583 3.08391 0.57243C3.46954 0.619277 3.82061 0.816114 4.05989 1.11964L8.46542 6.71403H23.9229C24.5263 5.00938 25.649 3.53277 27.1356 2.4884C28.6223 1.44404 30.3994 0.883518 32.2213 0.88436ZM27.1362 6.71403H33.6859C34.0744 6.71403 34.4469 6.86705 34.7216 7.13941C34.9962 7.41178 35.1505 7.78118 35.1505 8.16637V8.64854C35.1505 9.27703 34.945 9.88856 34.5647 10.3913L30.8827 15.2567C31.9406 15.5025 33.0467 15.4516 34.0772 15.1099C35.1077 14.7681 36.0221 14.1489 36.7181 13.3214C37.4141 12.4939 37.8642 11.4908 38.0183 10.4242C38.1724 9.35755 38.0242 8.26945 37.5905 7.28151C37.1567 6.29357 36.4544 5.44472 35.5621 4.82985C34.6698 4.21498 33.6226 3.85832 32.5376 3.79974C31.4525 3.74117 30.3725 3.98298 29.4181 4.49814C28.4637 5.01331 27.6726 5.78153 27.1333 6.71694V6.71403H27.1362ZM10.7561 9.6187L16.6819 17.1418C16.9076 17.4463 17.0047 17.8261 16.9526 18.2005C16.9005 18.5749 16.7033 18.9144 16.4029 19.1469C16.1024 19.3794 15.7224 19.4866 15.3435 19.4458C14.9646 19.405 14.6167 19.2193 14.3736 18.9282L7.0389 9.6187H3.66151L17.5753 27.9965L31.489 9.6187H10.7561Z" fill="#1D7C82"/>
</svg>
