<svg width="21" height="21" viewBox="0 0 21 21" fill="none" xmlns="http://www.w3.org/2000/svg">
<path d="M19.2501 10.5H4.37512V5.60885C4.37205 5.29374 4.45521 4.98379 4.61561 4.71254C4.77601 4.44128 5.00753 4.21906 5.28512 4.06991C5.59208 3.90356 5.94188 3.83309 6.28931 3.86761C6.11247 4.40316 6.08735 4.97721 6.21672 5.52616C6.3461 6.07511 6.62492 6.57753 7.0223 6.97774L7.95032 7.90573C8.03155 7.98699 8.12799 8.05146 8.23414 8.09544C8.34029 8.13943 8.45407 8.16207 8.56897 8.16207C8.68387 8.16207 8.79765 8.13943 8.9038 8.09544C9.00995 8.05146 9.10639 7.98699 9.18762 7.90573L12.2809 4.81246C12.3622 4.73123 12.4266 4.63479 12.4706 4.52864C12.5146 4.42249 12.5372 4.30871 12.5372 4.19381C12.5372 4.07891 12.5146 3.96513 12.4706 3.85898C12.4266 3.75283 12.3622 3.65639 12.2809 3.57516L11.3529 2.64718C10.8364 2.133 10.1532 1.82025 9.42651 1.7653C8.69979 1.71035 7.97734 1.91681 7.3894 2.34746C6.8593 2.14043 6.28664 2.06604 5.72123 2.13076C5.15583 2.19548 4.61479 2.39736 4.14519 2.71883C3.67558 3.04029 3.29162 3.47162 3.0267 3.9753C2.76178 4.47898 2.62393 5.03975 2.62512 5.60885V10.5H1.75012C1.51806 10.5 1.2955 10.5921 1.1314 10.7562C0.967309 10.9203 0.875122 11.1429 0.875122 11.375C0.875122 11.607 0.967309 11.8296 1.1314 11.9937C1.2955 12.1578 1.51806 12.25 1.75012 12.25H2.62512V14.875C2.62679 15.416 2.7959 15.9433 3.10924 16.3845C3.42257 16.8256 3.86477 17.1589 4.37512 17.3387V18.375C4.37512 18.607 4.46731 18.8296 4.6314 18.9937C4.7955 19.1578 5.01806 19.25 5.25012 19.25C5.48219 19.25 5.70475 19.1578 5.86884 18.9937C6.03294 18.8296 6.12512 18.607 6.12512 18.375V17.5H14.8751V18.375C14.8751 18.607 14.9673 18.8296 15.1314 18.9937C15.2955 19.1578 15.5181 19.25 15.7501 19.25C15.9822 19.25 16.2047 19.1578 16.3688 18.9937C16.5329 18.8296 16.6251 18.607 16.6251 18.375V17.3387C17.1355 17.159 17.5777 16.8256 17.891 16.3845C18.2044 15.9434 18.3735 15.416 18.3751 14.875V12.25H19.2501C19.4822 12.25 19.7047 12.1578 19.8688 11.9937C20.0329 11.8296 20.1251 11.607 20.1251 11.375C20.1251 11.1429 20.0329 10.9203 19.8688 10.7562C19.7047 10.5921 19.4822 10.5 19.2501 10.5ZM8.25964 3.88448C8.50598 3.63879 8.8397 3.50082 9.18762 3.50082C9.53554 3.50082 9.86926 3.63879 10.1156 3.88448L10.4249 4.19381L8.569 6.04976L8.25967 5.74044C8.01384 5.49417 7.87578 5.16043 7.87577 4.81247C7.87577 4.4645 8.01383 4.13076 8.25964 3.88448ZM16.6251 14.875C16.625 15.107 16.5327 15.3294 16.3687 15.4935C16.2046 15.6576 15.9821 15.7498 15.7501 15.75H5.25012C5.01811 15.7498 4.79564 15.6576 4.63158 15.4935C4.46751 15.3294 4.37528 15.107 4.37512 14.875V12.25H16.6251V14.875Z" fill="#1D7C82"/>
</svg>
