<svg width="31" height="31" viewBox="0 0 31 31" fill="none" xmlns="http://www.w3.org/2000/svg">
<path d="M9.04187 16.1458C9.80827 16.1458 10.5575 15.9186 11.1947 15.4928C11.8319 15.067 12.3286 14.4618 12.6219 13.7537C12.9152 13.0457 12.9919 12.2665 12.8424 11.5149C12.6929 10.7632 12.3238 10.0727 11.7819 9.53079C11.24 8.98887 10.5495 8.61981 9.79784 8.47029C9.04617 8.32077 8.26704 8.39751 7.55897 8.6908C6.85091 8.98409 6.24572 9.48076 5.81993 10.118C5.39413 10.7552 5.16687 11.5044 5.16687 12.2708C5.16687 13.2985 5.57513 14.2842 6.30183 15.0109C7.02853 15.7376 8.01416 16.1458 9.04187 16.1458ZM9.04187 10.9792C9.29734 10.9792 9.54707 11.0549 9.75948 11.1969C9.9719 11.3388 10.1375 11.5405 10.2352 11.7765C10.333 12.0126 10.3586 12.2723 10.3087 12.5228C10.2589 12.7734 10.1359 13.0035 9.95522 13.1842C9.77457 13.3648 9.54442 13.4878 9.29386 13.5377C9.0433 13.5875 8.78359 13.5619 8.54757 13.4642C8.31155 13.3664 8.10982 13.2009 7.96789 12.9884C7.82596 12.776 7.7502 12.5263 7.7502 12.2708C7.7502 11.9283 7.88629 11.5997 8.12852 11.3575C8.37076 11.1153 8.6993 10.9792 9.04187 10.9792ZM25.8335 8.39583H15.5002C15.1576 8.39583 14.8291 8.53192 14.5869 8.77415C14.3446 9.01639 14.2085 9.34493 14.2085 9.6875V17.4375H3.8752V7.10417C3.8752 6.7616 3.73912 6.43306 3.49688 6.19082C3.25465 5.94859 2.92611 5.8125 2.58354 5.8125C2.24097 5.8125 1.91242 5.94859 1.67019 6.19082C1.42796 6.43306 1.29187 6.7616 1.29187 7.10417V23.8958C1.29187 24.2384 1.42796 24.5669 1.67019 24.8092C1.91242 25.0514 2.24097 25.1875 2.58354 25.1875C2.92611 25.1875 3.25465 25.0514 3.49688 24.8092C3.73912 24.5669 3.8752 24.2384 3.8752 23.8958V20.0208H27.1252V23.8958C27.1252 24.2384 27.2613 24.5669 27.5035 24.8092C27.7458 25.0514 28.0743 25.1875 28.4169 25.1875C28.7594 25.1875 29.088 25.0514 29.3302 24.8092C29.5725 24.5669 29.7085 24.2384 29.7085 23.8958V12.2708C29.7085 11.2431 29.3003 10.2575 28.5736 9.53079C27.8469 8.80409 26.8612 8.39583 25.8335 8.39583ZM27.1252 17.4375H16.7919V10.9792H25.8335C26.1761 10.9792 26.5046 11.1153 26.7469 11.3575C26.9891 11.5997 27.1252 11.9283 27.1252 12.2708V17.4375Z" fill="white"/>
</svg>
