<svg width="21" height="21" viewBox="0 0 21 21" fill="none" xmlns="http://www.w3.org/2000/svg">
<path d="M6.12512 10.9375C6.6443 10.9375 7.15181 10.7835 7.58349 10.4951C8.01517 10.2067 8.35163 9.7967 8.55031 9.31704C8.74899 8.83739 8.80097 8.30959 8.69968 7.80039C8.5984 7.29119 8.34839 6.82346 7.98128 6.45634C7.61416 6.08923 7.14643 5.83923 6.63723 5.73794C6.12803 5.63665 5.60023 5.68864 5.12058 5.88732C4.64092 6.086 4.23095 6.42245 3.94251 6.85413C3.65408 7.28581 3.50012 7.79332 3.50012 8.3125C3.50012 9.00869 3.77668 9.67637 4.26897 10.1687C4.76125 10.6609 5.42893 10.9375 6.12512 10.9375ZM6.12512 7.4375C6.29818 7.4375 6.46735 7.48882 6.61125 7.58496C6.75514 7.68111 6.86729 7.81777 6.93352 7.97765C6.99974 8.13754 7.01707 8.31347 6.98331 8.4832C6.94955 8.65294 6.86621 8.80885 6.74384 8.93122C6.62147 9.05359 6.46556 9.13693 6.29583 9.17069C6.12609 9.20445 5.95016 9.18712 5.79027 9.12089C5.63039 9.05467 5.49373 8.94252 5.39759 8.79862C5.30144 8.65473 5.25012 8.48556 5.25012 8.3125C5.25012 8.08044 5.34231 7.85788 5.5064 7.69378C5.6705 7.52969 5.89306 7.4375 6.12512 7.4375ZM17.5001 5.6875H10.5001C10.2681 5.6875 10.0455 5.77969 9.8814 5.94378C9.71731 6.10788 9.62512 6.33044 9.62512 6.5625V11.8125H2.62512V4.8125C2.62512 4.58044 2.53293 4.35788 2.36884 4.19378C2.20475 4.02969 1.98219 3.9375 1.75012 3.9375C1.51806 3.9375 1.2955 4.02969 1.1314 4.19378C0.967309 4.35788 0.875122 4.58044 0.875122 4.8125V16.1875C0.875122 16.4196 0.967309 16.6421 1.1314 16.8062C1.2955 16.9703 1.51806 17.0625 1.75012 17.0625C1.98219 17.0625 2.20475 16.9703 2.36884 16.8062C2.53293 16.6421 2.62512 16.4196 2.62512 16.1875V13.5625H18.3751V16.1875C18.3751 16.4196 18.4673 16.6421 18.6314 16.8062C18.7955 16.9703 19.0181 17.0625 19.2501 17.0625C19.4822 17.0625 19.7047 16.9703 19.8688 16.8062C20.0329 16.6421 20.1251 16.4196 20.1251 16.1875V8.3125C20.1251 7.61631 19.8486 6.94863 19.3563 6.45634C18.864 5.96406 18.1963 5.6875 17.5001 5.6875ZM18.3751 11.8125H11.3751V7.4375H17.5001C17.7322 7.4375 17.9547 7.52969 18.1188 7.69378C18.2829 7.85788 18.3751 8.08044 18.3751 8.3125V11.8125Z" fill="#1D7C82"/>
</svg>
