<svg width="39" height="38" viewBox="0 0 39 38" fill="none" xmlns="http://www.w3.org/2000/svg">
<rect width="39" height="38" fill="#F3553F"/>
<path d="M7.8832 13.3127C8.96481 11.2141 10.6241 9.44998 12.6756 8.21746C14.727 6.98494 17.0899 6.33259 19.5 6.33333C23.0035 6.33333 25.9467 7.58733 28.197 9.633L24.4699 13.2658C23.1218 12.0105 21.4084 11.3709 19.5 11.3709C16.1135 11.3709 13.247 13.6002 12.2265 16.5933C11.9665 17.3533 11.8183 18.164 11.8183 19C11.8183 19.836 11.9665 20.6467 12.2265 21.4067C13.2483 24.4011 16.1135 26.6291 19.5 26.6291C21.2485 26.6291 22.737 26.1795 23.9018 25.4195C24.5771 24.9863 25.1552 24.4242 25.6012 23.7671C26.0472 23.11 26.3518 22.3717 26.4966 21.5967H19.5V16.6972H31.7434C31.8968 17.5256 31.98 18.3895 31.98 19.2875C31.98 23.1458 30.563 26.3935 28.1034 28.5975C25.9532 30.533 23.01 31.6667 19.5 31.6667C17.7926 31.6673 16.1018 31.3402 14.5243 30.7038C12.9468 30.0675 11.5134 29.1345 10.3061 27.9582C9.09879 26.7818 8.14124 25.3852 7.48818 23.8481C6.83511 22.311 6.49932 20.6636 6.5 19C6.5 16.9556 7.0018 15.0227 7.8832 13.3127Z" fill="white"/>
</svg>
