<svg width="30" height="30" viewBox="0 0 30 30" fill="none" xmlns="http://www.w3.org/2000/svg">
<path d="M25.5875 2.50017H4.41245C4.17442 2.49687 3.93808 2.54048 3.71691 2.62853C3.49574 2.71657 3.29408 2.84733 3.12345 3.01331C2.95282 3.1793 2.81655 3.37728 2.72244 3.59594C2.62833 3.81459 2.57821 4.04965 2.57495 4.28767V25.7127C2.57821 25.9507 2.62833 26.1858 2.72244 26.4044C2.81655 26.6231 2.95282 26.821 3.12345 26.987C3.29408 27.153 3.49574 27.2838 3.71691 27.3718C3.93808 27.4599 4.17442 27.5035 4.41245 27.5002H25.5875C25.8255 27.5035 26.0618 27.4599 26.283 27.3718C26.5042 27.2838 26.7058 27.153 26.8765 26.987C27.0471 26.821 27.1833 26.6231 27.2775 26.4044C27.3716 26.1858 27.4217 25.9507 27.425 25.7127V4.28767C27.4217 4.04965 27.3716 3.81459 27.2775 3.59594C27.1833 3.37728 27.0471 3.1793 26.8765 3.01331C26.7058 2.84733 26.5042 2.71657 26.283 2.62853C26.0618 2.54048 25.8255 2.49687 25.5875 2.50017ZM10.1125 23.4252H6.36245V12.1752H10.1125V23.4252ZM8.23745 10.6002C7.72028 10.6002 7.22429 10.3947 6.85859 10.029C6.4929 9.66334 6.28745 9.16735 6.28745 8.65017C6.28745 8.133 6.4929 7.63701 6.85859 7.27132C7.22429 6.90562 7.72028 6.70017 8.23745 6.70017C8.51207 6.66903 8.79017 6.69624 9.05354 6.78003C9.31692 6.86382 9.55963 7.00229 9.76577 7.18638C9.97192 7.37047 10.1369 7.59602 10.2498 7.84828C10.3627 8.10053 10.4211 8.3738 10.4211 8.65017C10.4211 8.92655 10.3627 9.19982 10.2498 9.45207C10.1369 9.70433 9.97192 9.92988 9.76577 10.114C9.55963 10.2981 9.31692 10.4365 9.05354 10.5203C8.79017 10.6041 8.51207 10.6313 8.23745 10.6002ZM23.6375 23.4252H19.8875V17.3877C19.8875 15.8752 19.35 14.8877 17.9875 14.8877C17.5658 14.8908 17.1552 15.023 16.811 15.2666C16.4668 15.5103 16.2056 15.8535 16.0625 16.2502C15.9646 16.544 15.9222 16.8534 15.9375 17.1627V23.4127H12.1875C12.1875 23.4127 12.1875 13.1877 12.1875 12.1627H15.9375V13.7502C16.2781 13.1591 16.7736 12.6721 17.3705 12.3417C17.9674 12.0113 18.6432 11.85 19.325 11.8752C21.825 11.8752 23.6375 13.4877 23.6375 16.9502V23.4252Z" fill="#1D7C82"/>
</svg>
