<svg width="21" height="21" viewBox="0 0 21 21" fill="none" xmlns="http://www.w3.org/2000/svg">
<path d="M10.7626 10.6925C11.2295 10.2884 11.604 9.78852 11.8606 9.2269C12.1173 8.66527 12.2501 8.055 12.2501 7.4375C12.2501 6.27718 11.7892 5.16438 10.9687 4.34391C10.1482 3.52344 9.03544 3.0625 7.87512 3.0625C6.7148 3.0625 5.602 3.52344 4.78153 4.34391C3.96106 5.16438 3.50012 6.27718 3.50012 7.4375C3.50012 8.055 3.63295 8.66527 3.88961 9.2269C4.14627 9.78852 4.52074 10.2884 4.98762 10.6925C3.76274 11.2471 2.72353 12.1428 1.99423 13.2725C1.26493 14.4021 0.87641 15.7179 0.875122 17.0625C0.875122 17.2946 0.967309 17.5171 1.1314 17.6812C1.2955 17.8453 1.51806 17.9375 1.75012 17.9375C1.98219 17.9375 2.20475 17.8453 2.36884 17.6812C2.53293 17.5171 2.62512 17.2946 2.62512 17.0625C2.62512 15.6701 3.17825 14.3348 4.16281 13.3502C5.14738 12.3656 6.48274 11.8125 7.87512 11.8125C9.26751 11.8125 10.6029 12.3656 11.5874 13.3502C12.572 14.3348 13.1251 15.6701 13.1251 17.0625C13.1251 17.2946 13.2173 17.5171 13.3814 17.6812C13.5455 17.8453 13.7681 17.9375 14.0001 17.9375C14.2322 17.9375 14.4547 17.8453 14.6188 17.6812C14.7829 17.5171 14.8751 17.2946 14.8751 17.0625C14.8738 15.7179 14.4853 14.4021 13.756 13.2725C13.0267 12.1428 11.9875 11.2471 10.7626 10.6925ZM7.87512 10.0625C7.35595 10.0625 6.84843 9.90855 6.41675 9.62011C5.98507 9.33167 5.64862 8.9217 5.44994 8.44204C5.25126 7.96239 5.19927 7.43459 5.30056 6.92539C5.40185 6.41619 5.65185 5.94846 6.01897 5.58135C6.38608 5.21423 6.85381 4.96423 7.36301 4.86294C7.87221 4.76165 8.40001 4.81364 8.87967 5.01232C9.35932 5.211 9.76929 5.54745 10.0577 5.97913C10.3462 6.41081 10.5001 6.91832 10.5001 7.4375C10.5001 8.13369 10.2236 8.80137 9.73128 9.29366C9.23899 9.78594 8.57132 10.0625 7.87512 10.0625ZM16.3976 10.3425C16.9576 9.71191 17.3234 8.93292 17.4509 8.0993C17.5785 7.26567 17.4624 6.41294 17.1167 5.64375C16.7709 4.87456 16.2102 4.2217 15.502 3.76374C14.7939 3.30579 13.9685 3.06227 13.1251 3.0625C12.8931 3.0625 12.6705 3.15469 12.5064 3.31878C12.3423 3.48288 12.2501 3.70544 12.2501 3.9375C12.2501 4.16956 12.3423 4.39212 12.5064 4.55622C12.6705 4.72031 12.8931 4.8125 13.1251 4.8125C13.8213 4.8125 14.489 5.08906 14.9813 5.58135C15.4736 6.07363 15.7501 6.74131 15.7501 7.4375C15.7489 7.89708 15.627 8.34829 15.3967 8.74599C15.1663 9.1437 14.8356 9.47396 14.4376 9.70375C14.3079 9.77858 14.1995 9.88546 14.1229 10.0141C14.0463 10.1428 14.004 10.289 14.0001 10.4388C13.9965 10.5873 14.0307 10.7343 14.0996 10.866C14.1685 10.9976 14.2697 11.1096 14.3939 11.1912L14.7351 11.4187L14.8489 11.48C15.9036 11.9803 16.7934 12.7715 17.4135 13.7605C18.0336 14.7496 18.3581 15.8952 18.3489 17.0625C18.3489 17.2946 18.4411 17.5171 18.6052 17.6812C18.7692 17.8453 18.9918 17.9375 19.2239 17.9375C19.4559 17.9375 19.6785 17.8453 19.8426 17.6812C20.0067 17.5171 20.0989 17.2946 20.0989 17.0625C20.106 15.7197 19.7697 14.3975 19.1219 13.2213C18.4741 12.0451 17.5363 11.0541 16.3976 10.3425Z" fill="#1D7C82"/>
</svg>
