<svg width="31" height="31" viewBox="0 0 31 31" fill="none" xmlns="http://www.w3.org/2000/svg">
<path d="M18.4298 15.6895L17.3273 16.7921L26.4608 25.9255L24.6341 27.7521L15.5006 18.6188L6.36718 27.7521L4.54049 25.9255L16.603 13.8628C15.8441 11.981 16.6286 9.27065 18.6973 7.2019C21.2195 4.67977 24.6953 4.06639 26.4608 5.83188C28.2262 7.59738 27.6129 11.0732 25.0907 13.5953C23.022 15.6641 20.3117 16.4486 18.4298 15.6895ZM5.45383 4.91853L14.1307 13.5953L10.4772 17.2487L5.45383 12.2253C3.43613 10.2076 3.43613 6.93624 5.45383 4.91853ZM23.264 11.7686C24.8881 10.1447 25.2228 8.2473 24.6341 7.65857C24.0454 7.06985 22.1479 7.40469 20.524 9.02859C18.9001 10.6525 18.5653 12.5499 19.1541 13.1386C19.7427 13.7273 21.6402 13.3925 23.264 11.7686Z" fill="white"/>
</svg>
