<svg width="31" height="31" viewBox="0 0 31 31" fill="none" xmlns="http://www.w3.org/2000/svg">
<path d="M14.2085 18.0835V14.2085H16.7918V18.0835H23.2501C23.9635 18.0835 24.5418 18.6618 24.5418 19.3752V27.1252C24.5418 27.8386 23.9635 28.4168 23.2501 28.4168H7.7502C7.03682 28.4168 6.45853 27.8386 6.45853 27.1252V19.3752C6.45853 18.6618 7.03682 18.0835 7.7502 18.0835H14.2085ZM3.24304 11.4144C4.95267 6.28314 9.79439 2.5835 15.5001 2.5835C21.2061 2.5835 26.0478 6.28314 27.7574 11.4144L25.3059 12.2316C23.9382 8.12654 20.0649 5.16683 15.5001 5.16683C10.9355 5.16683 7.06218 8.12654 5.69447 12.2316L3.24304 11.4144ZM8.1459 13.0487C9.17168 9.96994 12.0767 7.75016 15.5001 7.75016C18.9237 7.75016 21.8287 9.96994 22.8545 13.0487L20.403 13.8658C19.7192 11.8134 17.7825 10.3335 15.5001 10.3335C13.2179 10.3335 11.2812 11.8134 10.5973 13.8658L8.1459 13.0487ZM9.04186 20.6668V25.8335H21.9585V20.6668H9.04186Z" fill="white"/>
</svg>
