<svg width="31" height="31" viewBox="0 0 31 31" fill="none" xmlns="http://www.w3.org/2000/svg">
<path d="M21.9583 11.9865C22.4693 11.9865 22.9687 11.835 23.3936 11.5511C23.8184 11.2673 24.1495 10.8638 24.345 10.3918C24.5405 9.91972 24.5917 9.40029 24.492 8.89918C24.3923 8.39806 24.1463 7.93775 23.785 7.57647C23.4237 7.21518 22.9634 6.96914 22.4623 6.86946C21.9612 6.76978 21.4418 6.82094 20.9697 7.01647C20.4977 7.212 20.0942 7.54311 19.8104 7.96794C19.5265 8.39276 19.375 8.89222 19.375 9.40316C19.375 10.0883 19.6472 10.7454 20.1316 11.2299C20.6161 11.7143 21.2732 11.9865 21.9583 11.9865ZM3.50041 17.9798C3.75636 18.0616 4.00311 18.1699 4.23666 18.3027C5.03999 18.7727 5.9539 19.0203 6.88458 19.0203C7.81526 19.0203 8.72917 18.7727 9.5325 18.3027C10.0376 18.0199 10.6069 17.8714 11.1858 17.8714C11.7648 17.8714 12.334 18.0199 12.8392 18.3027L13.1104 18.4319C13.8942 18.8135 14.7594 18.9977 15.6306 18.9684C16.5019 18.9391 17.3528 18.6973 18.1092 18.264C18.6143 17.9812 19.1836 17.8326 19.7625 17.8326C20.3414 17.8326 20.9107 17.9812 21.4158 18.264C22.2344 18.7318 23.1597 18.9809 24.1025 18.9873C25.0123 18.9779 25.9034 18.7284 26.6858 18.264C26.9194 18.1311 27.1661 18.0229 27.4221 17.9411C27.613 17.9279 27.7986 17.8725 27.9655 17.7789C28.1324 17.6852 28.2764 17.5557 28.387 17.3996C28.4977 17.2435 28.5723 17.0647 28.6055 16.8763C28.6387 16.6878 28.6295 16.4943 28.5788 16.3098C28.528 16.1253 28.4369 15.9544 28.312 15.8094C28.1871 15.6644 28.0315 15.549 27.8566 15.4715C27.6816 15.394 27.4916 15.3563 27.3003 15.3612C27.109 15.3661 26.9212 15.4135 26.7504 15.4998C26.2997 15.6397 25.8664 15.8304 25.4587 16.0682C25.0464 16.3062 24.5786 16.4316 24.1025 16.4316C23.6264 16.4316 23.1586 16.3062 22.7462 16.0682C21.8515 15.5634 20.8415 15.2982 19.8142 15.2982C18.7868 15.2982 17.7769 15.5634 16.8821 16.0682C16.7606 16.1276 16.6355 16.1793 16.5075 16.2232L18.5225 14.2082C18.5687 14.1483 18.6077 14.0833 18.6387 14.0144C18.6972 13.9509 18.7491 13.8816 18.7937 13.8077C18.7998 13.726 18.7998 13.644 18.7937 13.5623C18.8011 13.4807 18.8011 13.3986 18.7937 13.3169C18.7999 13.2395 18.7999 13.1618 18.7937 13.0844C18.8011 13.0028 18.8011 12.9206 18.7937 12.839C18.7555 12.7631 18.7124 12.6897 18.6646 12.6194C18.6311 12.545 18.5876 12.4755 18.5354 12.4127L14.57 8.11149C14.4657 7.99776 14.3435 7.90178 14.2083 7.82733C14.1183 7.81541 14.0271 7.81541 13.9371 7.82733C13.8644 7.81551 13.7902 7.81551 13.7175 7.82733C13.5456 7.75814 13.3594 7.73155 13.175 7.74983L8.6025 9.45483C8.28057 9.57141 8.0181 9.81105 7.87277 10.1211C7.72745 10.4311 7.71117 10.7861 7.8275 11.1082C7.94409 11.4301 8.18372 11.6926 8.49375 11.8379C8.80377 11.9832 9.15881 11.9995 9.48083 11.8832L13.2654 10.5011L15.8487 13.2394L13.3946 15.6936C12.5723 15.3739 11.6894 15.2406 10.8094 15.3031C9.9294 15.3656 9.07422 15.6225 8.30541 16.0552C7.89306 16.2933 7.42531 16.4186 6.94916 16.4186C6.47302 16.4186 6.00527 16.2933 5.59291 16.0552C5.18529 15.8175 4.75195 15.6268 4.30125 15.4869C4.13598 15.4252 3.95983 15.3981 3.78367 15.4071C3.6075 15.4161 3.43505 15.4611 3.27694 15.5394C3.11884 15.6176 2.97843 15.7274 2.86438 15.8619C2.75033 15.9965 2.66504 16.153 2.61379 16.3218C2.56253 16.4906 2.54639 16.6681 2.56636 16.8433C2.58633 17.0186 2.64199 17.1879 2.7299 17.3408C2.81782 17.4938 2.93612 17.6271 3.07752 17.7325C3.21893 17.838 3.38043 17.9133 3.55208 17.954L3.50041 17.9798ZM26.7504 21.9711C26.2997 22.111 25.8664 22.3016 25.4587 22.5394C25.0464 22.7775 24.5786 22.9028 24.1025 22.9028C23.6264 22.9028 23.1586 22.7775 22.7462 22.5394C21.8515 22.0346 20.8415 21.7694 19.8142 21.7694C18.7868 21.7694 17.7769 22.0346 16.8821 22.5394C16.4662 22.781 15.9939 22.9083 15.5129 22.9083C15.032 22.9083 14.5596 22.781 14.1437 22.5394C13.249 22.0346 12.239 21.7694 11.2117 21.7694C10.1843 21.7694 9.17437 22.0346 8.27958 22.5394C7.86723 22.7775 7.39947 22.9028 6.92333 22.9028C6.44719 22.9028 5.97943 22.7775 5.56708 22.5394C5.15946 22.3016 4.72612 22.111 4.27541 21.9711C4.11015 21.9094 3.934 21.8823 3.75783 21.8913C3.58167 21.9003 3.40922 21.9453 3.25111 22.0235C3.09301 22.1018 2.9526 22.2115 2.83855 22.3461C2.72449 22.4807 2.63921 22.6372 2.58795 22.8059C2.5367 22.9747 2.52056 23.1522 2.54053 23.3275C2.5605 23.5028 2.61616 23.6721 2.70407 23.825C2.79198 23.9779 2.91029 24.1112 3.05169 24.2167C3.19309 24.3221 3.3546 24.3975 3.52625 24.4382C3.7822 24.52 4.02894 24.6282 4.2625 24.7611C5.06582 25.231 5.97974 25.4787 6.91041 25.4787C7.84109 25.4787 8.755 25.231 9.55833 24.7611C10.0635 24.4782 10.6327 24.3297 11.2117 24.3297C11.7906 24.3297 12.3599 24.4782 12.865 24.7611C13.6753 25.2244 14.5925 25.4681 15.5258 25.4681C16.4592 25.4681 17.3764 25.2244 18.1867 24.7611C18.6918 24.4782 19.2611 24.3297 19.84 24.3297C20.4189 24.3297 20.9882 24.4782 21.4933 24.7611C22.3119 25.2289 23.2372 25.478 24.18 25.4844C25.0898 25.475 25.9809 25.2254 26.7633 24.7611C26.9969 24.6282 27.2436 24.52 27.4996 24.4382C27.6624 24.389 27.814 24.3082 27.9456 24.2004C28.0772 24.0927 28.1863 23.96 28.2667 23.8101C28.347 23.6602 28.3971 23.4959 28.414 23.3266C28.4308 23.1573 28.4142 22.9864 28.365 22.8236C28.3158 22.6607 28.235 22.5092 28.1273 22.3776C28.0195 22.2459 27.8869 22.1368 27.7369 22.0565C27.587 21.9761 27.4227 21.9261 27.2535 21.9092C27.0842 21.8923 26.9133 21.909 26.7504 21.9582V21.9711Z" fill="white"/>
</svg>
