<svg width="31" height="31" viewBox="0 0 31 31" fill="none" xmlns="http://www.w3.org/2000/svg">
<path d="M28.4167 14.2083V27.125C28.4167 27.8384 27.8384 28.4167 27.125 28.4167H25.8334C25.12 28.4167 24.5417 27.8384 24.5417 27.125V25.8333H6.45837V27.125C6.45837 27.8384 5.88007 28.4167 5.16671 28.4167H3.87504C3.16168 28.4167 2.58337 27.8384 2.58337 27.125V14.2083L5.74435 7.88636C6.18196 7.01117 7.07646 6.45833 8.05497 6.45833H11.625V3.875H19.375V6.45833H22.9451C23.9236 6.45833 24.8181 7.01117 25.2557 7.88636L28.4167 14.2083ZM25.8334 16.7917H5.16671V23.25H25.8334V16.7917ZM5.47163 14.2083H25.5284L22.9451 9.04167H8.05497L5.47163 14.2083ZM8.39587 21.9583C7.32582 21.9583 6.45837 21.0908 6.45837 20.0208C6.45837 18.9508 7.32582 18.0833 8.39587 18.0833C9.46593 18.0833 10.3334 18.9508 10.3334 20.0208C10.3334 21.0908 9.46593 21.9583 8.39587 21.9583ZM22.6042 21.9583C21.5342 21.9583 20.6667 21.0908 20.6667 20.0208C20.6667 18.9508 21.5342 18.0833 22.6042 18.0833C23.6742 18.0833 24.5417 18.9508 24.5417 20.0208C24.5417 21.0908 23.6742 21.9583 22.6042 21.9583Z" fill="white"/>
</svg>
