<svg width="31" height="31" viewBox="0 0 31 31" fill="none" xmlns="http://www.w3.org/2000/svg">
<path d="M15.5 28.4168C8.36636 28.4168 2.58337 22.6338 2.58337 15.5002C2.58337 8.36648 8.36636 2.5835 15.5 2.5835C22.6337 2.5835 28.4167 8.36648 28.4167 15.5002C28.4167 22.6338 22.6337 28.4168 15.5 28.4168ZM15.5 25.8335C21.207 25.8335 25.8334 21.2071 25.8334 15.5002C25.8334 9.79322 21.207 5.16683 15.5 5.16683C9.7931 5.16683 5.16671 9.79322 5.16671 15.5002C5.16671 21.2071 9.7931 25.8335 15.5 25.8335ZM16.7917 15.5002H21.9584V18.0835H14.2084V9.04183H16.7917V15.5002Z" fill="white"/>
</svg>
