<svg width="28" height="28" viewBox="0 0 28 28" fill="none" xmlns="http://www.w3.org/2000/svg">
<path d="M19.2501 5.83331C18.2229 5.8325 17.2148 6.11074 16.3334 6.63831C15.6944 5.17157 14.5722 3.96798 13.1537 3.22798C11.7352 2.48798 10.106 2.25622 8.53747 2.5713C6.96889 2.88638 5.55558 3.72928 4.53288 4.95964C3.51018 6.19 2.93981 7.73357 2.91675 9.33331V14C2.91842 15.653 3.50504 17.2521 4.5727 18.5141C5.64036 19.7761 7.12018 20.6195 8.75008 20.895V24.5C8.75008 24.8094 8.873 25.1061 9.09179 25.3249C9.31058 25.5437 9.60733 25.6666 9.91675 25.6666C10.2262 25.6666 10.5229 25.5437 10.7417 25.3249C10.9605 25.1061 11.0834 24.8094 11.0834 24.5V20.895C12.2719 20.6887 13.3882 20.1828 14.3267 19.425C14.7433 20.0935 15.2909 20.6707 15.9365 21.1219C16.5821 21.573 17.3125 21.8887 18.0834 22.05V24.5C18.0834 24.8094 18.2063 25.1061 18.4251 25.3249C18.6439 25.5437 18.9407 25.6666 19.2501 25.6666C19.5595 25.6666 19.8562 25.5437 20.075 25.3249C20.2938 25.1061 20.4167 24.8094 20.4167 24.5V22.05C21.7343 21.781 22.9185 21.0651 23.7689 20.0234C24.6193 18.9816 25.0837 17.6781 25.0834 16.3333V11.6666C25.0834 10.1196 24.4688 8.63582 23.3749 7.54186C22.2809 6.4479 20.7972 5.83331 19.2501 5.83331ZM13.4167 11.6666V16.3333C13.4279 16.5561 13.4513 16.7781 13.4867 16.9983C12.8628 17.7414 12.0227 18.2716 11.0834 18.515V15.1666C11.0834 14.8572 10.9605 14.5605 10.7417 14.3417C10.5229 14.1229 10.2262 14 9.91675 14C9.60733 14 9.31058 14.1229 9.09179 14.3417C8.873 14.5605 8.75008 14.8572 8.75008 15.1666V18.5033C7.75086 18.2453 6.86534 17.6634 6.23205 16.8486C5.59876 16.0337 5.25343 15.032 5.25008 14V9.33331C5.24704 8.40881 5.51867 7.50423 6.03051 6.73433C6.54235 5.96443 7.27133 5.36391 8.12499 5.00895C8.97864 4.65399 9.91849 4.56059 10.8253 4.74059C11.7321 4.92059 12.5651 5.36588 13.2184 6.01998C13.85 6.66006 14.28 7.47132 14.4551 8.35331C13.7807 9.32676 13.4185 10.4824 13.4167 11.6666ZM22.7501 16.3333C22.7481 17.0554 22.5227 17.7592 22.105 18.3482C21.6873 18.9372 21.0976 19.3826 20.4167 19.6233V15.1666C20.4167 14.8572 20.2938 14.5605 20.075 14.3417C19.8562 14.1229 19.5595 14 19.2501 14C18.9407 14 18.6439 14.1229 18.4251 14.3417C18.2063 14.5605 18.0834 14.8572 18.0834 15.1666V19.6233C17.4026 19.3826 16.8129 18.9372 16.3952 18.3482C15.9774 17.7592 15.7521 17.0554 15.7501 16.3333V11.6666C15.7501 10.7384 16.1188 9.84815 16.7752 9.19177C17.4316 8.5354 18.3218 8.16665 19.2501 8.16665C20.1783 8.16665 21.0686 8.5354 21.725 9.19177C22.3813 9.84815 22.7501 10.7384 22.7501 11.6666V16.3333Z" fill="white"/>
</svg>
