<svg width="30" height="30" viewBox="0 0 30 30" fill="none" xmlns="http://www.w3.org/2000/svg">
<path d="M27.5 7.24977C26.5604 7.65739 25.5668 7.92685 24.55 8.04977C25.6227 7.40892 26.4266 6.40075 26.8125 5.21227C25.8044 5.81235 24.701 6.23514 23.55 6.46227C22.7807 5.62799 21.7562 5.07264 20.6373 4.88334C19.5183 4.69403 18.3682 4.88147 17.3672 5.41626C16.3663 5.95105 15.5712 6.80294 15.1066 7.83832C14.6419 8.8737 14.5341 10.034 14.8 11.1373C12.7618 11.0342 10.7681 10.5035 8.94832 9.5796C7.12859 8.65574 5.52356 7.35939 4.2375 5.77477C3.78642 6.56248 3.5494 7.45455 3.55 8.36227C3.5484 9.20525 3.75527 10.0355 4.15219 10.7792C4.54912 11.5229 5.12377 12.1569 5.825 12.6248C5.00997 12.6026 4.21236 12.3839 3.5 11.9873V12.0498C3.50611 13.2309 3.91999 14.3736 4.67164 15.2847C5.42329 16.1958 6.46657 16.8193 7.625 17.0498C7.17907 17.1855 6.71609 17.257 6.25 17.2623C5.92736 17.2585 5.60553 17.2292 5.2875 17.1748C5.61739 18.1908 6.25578 19.0787 7.11384 19.715C7.97191 20.3512 9.00697 20.7042 10.075 20.7248C8.2715 22.1439 6.04485 22.9183 3.75 22.9248C3.33217 22.9261 2.91467 22.9011 2.5 22.8498C4.84304 24.3626 7.57352 25.1657 10.3625 25.1623C12.2871 25.1823 14.1964 24.8185 15.9789 24.0924C17.7614 23.3662 19.3813 22.2921 20.744 20.9329C22.1067 19.5737 23.185 17.9565 23.9157 16.1759C24.6464 14.3953 25.015 12.4869 25 10.5623C25 10.3498 25 10.1248 25 9.89977C25.9809 9.16829 26.8268 8.27155 27.5 7.24977Z" fill="#1D7C82"/>
</svg>
