<svg width="39" height="38" viewBox="0 0 39 38" fill="none" xmlns="http://www.w3.org/2000/svg">
<rect width="39" height="38" fill="#1D9ED6"/>
<path d="M32.7104 10.9642C31.7179 11.3919 30.6654 11.6728 29.5878 11.7976C30.7236 11.1357 31.5738 10.094 31.9798 8.86657C30.9138 9.48471 29.7451 9.91791 28.527 10.1522C27.7088 9.29924 26.6242 8.73353 25.442 8.54305C24.2598 8.35257 23.0461 8.54799 21.9896 9.09895C20.9331 9.6499 20.0931 10.5255 19.6 11.5896C19.107 12.6538 18.9885 13.8468 19.2632 14.9833C17.1014 14.8777 14.9866 14.3304 13.056 13.3767C11.1255 12.4231 9.42233 11.0846 8.05716 9.44797C7.57394 10.2567 7.32 11.176 7.32136 12.1118C7.32136 13.9484 8.28076 15.571 9.73936 16.521C8.87617 16.4946 8.03199 16.2674 7.27716 15.8586V15.9244C7.27742 17.1477 7.71184 18.3332 8.50677 19.2799C9.30169 20.2267 10.4082 20.8764 11.6387 21.119C10.8374 21.3306 9.99716 21.3618 9.18166 21.2102C9.52859 22.2631 10.2048 23.184 11.1155 23.8438C12.0263 24.5036 13.126 24.8694 14.2608 24.8899C13.133 25.7529 11.8417 26.3909 10.4607 26.7673C9.07972 27.1438 7.63613 27.2513 6.21246 27.0838C8.69767 28.6411 11.5907 29.4678 14.5455 29.4651C24.5464 29.4651 30.0155 21.3926 30.0155 14.3918C30.0155 14.1638 30.009 13.9332 29.9986 13.7078C31.0631 12.9581 31.9818 12.0295 32.7117 10.9654L32.7104 10.9642Z" fill="white"/>
</svg>
