<svg width="41" height="42" viewBox="0 0 41 42" fill="none" xmlns="http://www.w3.org/2000/svg">
<path fill-rule="evenodd" clip-rule="evenodd" d="M38.3992 4.34632C39.0143 4.8954 39.3599 5.64012 39.3599 6.41663V15.2002H36.0799V6.41663H29.5199V9.34449H26.2399V6.41663H13.12V9.34449H9.83997V6.41663H3.27999V35.6952H9.83997V38.6231H3.27999C2.41008 38.6231 1.5758 38.3146 0.960686 37.7655C0.345569 37.2165 0 36.4717 0 35.6952V6.41663C0 5.64012 0.345569 4.8954 0.960686 4.34632C1.5758 3.79724 2.41008 3.48877 3.27999 3.48877H9.83997V0.560913H13.12V3.48877H26.2399V0.560913H29.5199V3.48877H36.0799C36.9498 3.48877 37.7841 3.79724 38.3992 4.34632ZM27.8801 41.5509C25.2852 41.5509 22.7486 40.864 20.591 39.5771C18.4334 38.2903 16.7518 36.4612 15.7588 34.3212C14.7658 32.1812 14.506 29.8264 15.0122 27.5546C15.5184 25.2828 16.768 23.1961 18.6029 21.5582C20.4377 19.9203 22.7755 18.8049 25.3205 18.353C27.8655 17.9011 30.5035 18.1331 32.9009 19.0195C35.2982 19.9059 37.3473 21.407 38.7889 23.3329C40.2306 25.2588 41 27.5231 41 29.8394C41 32.9455 39.6177 35.9244 37.1573 38.1207C34.6968 40.317 31.3597 41.5509 27.8801 41.5509ZM27.8801 21.0559C25.9339 21.0559 24.0314 21.571 22.4133 22.5362C20.7951 23.5013 19.5339 24.8731 18.7891 26.4781C18.0444 28.0831 17.8495 29.8492 18.2292 31.553C18.6088 33.2569 19.546 34.822 20.9222 36.0504C22.2983 37.2788 24.0516 38.1153 25.9604 38.4542C27.8692 38.7932 29.8476 38.6192 31.6457 37.9544C33.4437 37.2896 34.9805 36.1638 36.0617 34.7193C37.1429 33.2749 37.72 31.5767 37.72 29.8394C37.72 27.5099 36.6833 25.2757 34.838 23.6285C32.9926 21.9813 30.4898 21.0559 27.8801 21.0559ZM30.4869 34.2313L26.2393 30.4398V23.9838H29.5193V29.2393L32.7993 32.1672L30.4869 34.2313Z" fill="#1D7C82"/>
</svg>
