<svg width="45" height="45" viewBox="0 0 45 45" fill="none" xmlns="http://www.w3.org/2000/svg">
<path d="M15.0455 22.495H29.9545M13.9278 2H8.70957C8.41301 2 8.1286 2.25911 7.9189 2.72034C7.7092 3.18157 7.59139 3.80713 7.59139 4.4594V40.5306C7.59139 40.8536 7.62031 41.1734 7.67651 41.4718C7.7327 41.7702 7.81506 42.0413 7.9189 42.2697C8.02273 42.498 8.146 42.6792 8.28166 42.8028C8.41733 42.9264 8.56273 42.99 8.70957 42.99H13.9278C14.0746 42.99 14.22 42.9264 14.3557 42.8028C14.4913 42.6792 14.6146 42.498 14.7184 42.2697C14.8223 42.0413 14.9046 41.7702 14.9608 41.4718C15.017 41.1734 15.0459 40.8536 15.0459 40.5306V4.4594C15.0459 3.80713 14.9281 3.18157 14.7184 2.72034C14.5087 2.25911 14.2243 2 13.9278 2ZM36.2914 2H31.0732C30.7766 2 30.4922 2.25911 30.2825 2.72034C30.0728 3.18157 29.955 3.80713 29.955 4.4594V40.5306C29.955 40.8536 29.9839 41.1734 30.0401 41.4718C30.0963 41.7702 30.1787 42.0413 30.2825 42.2697C30.3864 42.498 30.5096 42.6792 30.6453 42.8028C30.781 42.9264 30.9264 42.99 31.0732 42.99H36.2914C36.4382 42.99 36.5836 42.9264 36.7193 42.8028C36.855 42.6792 36.9782 42.498 37.0821 42.2697C37.1859 42.0413 37.2683 41.7702 37.3245 41.4718C37.3807 41.1734 37.4096 40.8536 37.4096 40.5306V4.4594C37.4096 3.80713 37.2918 3.18157 37.0821 2.72034C36.8724 2.25911 36.5879 2 36.2914 2ZM2 32.3326V12.6574C2 12.0051 2.11781 11.3796 2.32751 10.9183C2.53721 10.4571 2.82162 10.198 3.11818 10.198H6.47273C6.76929 10.198 7.0537 10.4571 7.2634 10.9183C7.4731 11.3796 7.59091 12.0051 7.59091 12.6574V32.3326C7.59091 32.9849 7.4731 33.6104 7.2634 34.0717C7.0537 34.5329 6.76929 34.792 6.47273 34.792H3.11818C2.82162 34.792 2.53721 34.5329 2.32751 34.0717C2.11781 33.6104 2 32.9849 2 32.3326ZM43 32.3326V12.6574C43 12.0051 42.8822 11.3796 42.6725 10.9183C42.4628 10.4571 42.1784 10.198 41.8818 10.198H38.5273C38.2307 10.198 37.9463 10.4571 37.7366 10.9183C37.5269 11.3796 37.4091 12.0051 37.4091 12.6574V32.3326C37.4091 32.9849 37.5269 33.6104 37.7366 34.0717C37.9463 34.5329 38.2307 34.792 38.5273 34.792H41.8818C42.1784 34.792 42.4628 34.5329 42.6725 34.0717C42.8822 33.6104 43 32.9849 43 32.3326Z" stroke="#1D7C82" stroke-width="3" stroke-linecap="round" stroke-linejoin="round"/>
</svg>
