<svg width="55" height="55" viewBox="0 0 55 55" fill="none" xmlns="http://www.w3.org/2000/svg">
<circle cx="27.5" cy="27.5" r="27.5" fill="#162034"/>
<path d="M37.3483 34.125L34.1867 28.665C34.8336 27.4768 35.1707 26.1446 35.1667 24.7917C35.1667 22.6257 34.3063 20.5485 32.7747 19.017C31.2432 17.4854 29.1659 16.625 27 16.625C24.8341 16.625 22.7568 17.4854 21.2253 19.017C19.6938 20.5485 18.8333 22.6257 18.8333 24.7917C18.8293 26.1446 19.1664 27.4768 19.8133 28.665L16.6517 34.125C16.5491 34.3027 16.4952 34.5043 16.4954 34.7095C16.4956 34.9147 16.5499 35.1162 16.6528 35.2937C16.7558 35.4712 16.9037 35.6184 17.0817 35.7204C17.2597 35.8225 17.4615 35.8758 17.6667 35.875H21.015L22.7183 38.745C22.7758 38.8401 22.8465 38.9265 22.9283 39.0017C23.1446 39.2101 23.433 39.3271 23.7333 39.3283H23.8967C24.0728 39.3042 24.2411 39.2402 24.3887 39.1411C24.5363 39.042 24.6593 38.9105 24.7483 38.7567L27 34.8833L29.2517 38.7917C29.342 38.9434 29.4656 39.0726 29.6131 39.1696C29.7606 39.2666 29.9283 39.3289 30.1033 39.3517H30.2667C30.5711 39.3535 30.8642 39.2363 31.0833 39.025C31.1618 38.9542 31.2287 38.8715 31.2817 38.78L32.985 35.91H36.3333C36.5389 35.9108 36.7411 35.8573 36.9193 35.7549C37.0975 35.6524 37.2455 35.5047 37.3483 35.3267C37.4574 35.1452 37.5149 34.9375 37.5149 34.7258C37.5149 34.5141 37.4574 34.3065 37.3483 34.125ZM23.7217 35.91L22.6833 34.1717C22.5811 33.9992 22.4361 33.856 22.2624 33.7559C22.0887 33.6557 21.8922 33.602 21.6917 33.6H19.6733L21.3417 30.7067C22.4905 31.8137 23.9385 32.56 25.5067 32.8533L23.7217 35.91ZM27 30.625C25.8463 30.625 24.7185 30.2829 23.7592 29.6419C22.7999 29.0009 22.0522 28.0899 21.6107 27.024C21.1692 25.9581 21.0537 24.7852 21.2788 23.6536C21.5038 22.5221 22.0594 21.4827 22.8752 20.6669C23.691 19.8511 24.7304 19.2955 25.862 19.0704C26.9935 18.8453 28.1664 18.9609 29.2323 19.4024C30.2982 19.8439 31.2093 20.5916 31.8502 21.5508C32.4912 22.5101 32.8333 23.6379 32.8333 24.7917C32.8333 26.3388 32.2188 27.8225 31.1248 28.9165C30.0308 30.0104 28.5471 30.625 27 30.625ZM32.3083 33.6C32.1079 33.602 31.9113 33.6557 31.7376 33.7559C31.5639 33.856 31.4189 33.9992 31.3167 34.1717L30.2783 35.91L28.505 32.8183C30.0677 32.519 31.5103 31.7734 32.6583 30.6717L34.3267 33.565L32.3083 33.6Z" fill="white"/>
</svg>
