<svg width="55" height="55" viewBox="0 0 55 55" fill="none" xmlns="http://www.w3.org/2000/svg">
<circle cx="27.5" cy="27.5" r="27.5" fill="#162034"/>
<path d="M32.2501 19.8333C31.2229 19.8325 30.2148 20.1107 29.3334 20.6383C28.6944 19.1716 27.5722 17.968 26.1537 17.228C24.7352 16.488 23.106 16.2562 21.5375 16.5713C19.9689 16.8864 18.5556 17.7293 17.5329 18.9596C16.5102 20.19 15.9398 21.7336 15.9167 23.3333V28C15.9184 29.653 16.505 31.2521 17.5727 32.5141C18.6404 33.7761 20.1202 34.6195 21.7501 34.895V38.5C21.7501 38.8094 21.873 39.1061 22.0918 39.3249C22.3106 39.5437 22.6073 39.6666 22.9167 39.6666C23.2262 39.6666 23.5229 39.5437 23.7417 39.3249C23.9605 39.1061 24.0834 38.8094 24.0834 38.5V34.895C25.2719 34.6887 26.3882 34.1828 27.3267 33.425C27.7433 34.0935 28.2909 34.6707 28.9365 35.1219C29.5821 35.573 30.3125 35.8887 31.0834 36.05V38.5C31.0834 38.8094 31.2063 39.1061 31.4251 39.3249C31.6439 39.5437 31.9407 39.6666 32.2501 39.6666C32.5595 39.6666 32.8562 39.5437 33.075 39.3249C33.2938 39.1061 33.4167 38.8094 33.4167 38.5V36.05C34.7343 35.781 35.9185 35.0651 36.7689 34.0234C37.6193 32.9816 38.0837 31.6781 38.0834 30.3333V25.6666C38.0834 24.1196 37.4688 22.6358 36.3749 21.5419C35.2809 20.4479 33.7972 19.8333 32.2501 19.8333ZM26.4167 25.6666V30.3333C26.4279 30.5561 26.4513 30.7781 26.4867 30.9983C25.8628 31.7414 25.0227 32.2716 24.0834 32.515V29.1666C24.0834 28.8572 23.9605 28.5605 23.7417 28.3417C23.5229 28.1229 23.2262 28 22.9167 28C22.6073 28 22.3106 28.1229 22.0918 28.3417C21.873 28.5605 21.7501 28.8572 21.7501 29.1666V32.5033C20.7509 32.2453 19.8653 31.6634 19.2321 30.8486C18.5988 30.0337 18.2534 29.032 18.2501 28V23.3333C18.247 22.4088 18.5187 21.5042 19.0305 20.7343C19.5423 19.9644 20.2713 19.3639 21.125 19.009C21.9786 18.654 22.9185 18.5606 23.8253 18.7406C24.7321 18.9206 25.5651 19.3659 26.2184 20.02C26.85 20.6601 27.28 21.4713 27.4551 22.3533C26.7807 23.3268 26.4185 24.4824 26.4167 25.6666ZM35.7501 30.3333C35.7481 31.0554 35.5227 31.7592 35.105 32.3482C34.6873 32.9372 34.0976 33.3826 33.4167 33.6233V29.1666C33.4167 28.8572 33.2938 28.5605 33.075 28.3417C32.8562 28.1229 32.5595 28 32.2501 28C31.9407 28 31.6439 28.1229 31.4251 28.3417C31.2063 28.5605 31.0834 28.8572 31.0834 29.1666V33.6233C30.4026 33.3826 29.8129 32.9372 29.3952 32.3482C28.9774 31.7592 28.7521 31.0554 28.7501 30.3333V25.6666C28.7501 24.7384 29.1188 23.8482 29.7752 23.1918C30.4316 22.5354 31.3218 22.1666 32.2501 22.1666C33.1783 22.1666 34.0686 22.5354 34.725 23.1918C35.3813 23.8482 35.7501 24.7384 35.7501 25.6666V30.3333Z" fill="white"/>
</svg>
