<svg width="55" height="55" viewBox="0 0 55 55" fill="none" xmlns="http://www.w3.org/2000/svg">
<circle cx="27.5" cy="27.5" r="27.5" fill="#162034"/>
<path d="M34 19.2266C32.1434 17.3701 29.6255 16.3271 27 16.3271C24.3744 16.3271 21.8565 17.3701 20 19.2266C18.1434 21.0832 17.1005 23.6011 17.1005 26.2266C17.1005 28.8522 18.1434 31.3701 20 33.2266L26.1483 39.3866C26.2567 39.496 26.3858 39.5828 26.528 39.642C26.6701 39.7012 26.8226 39.7317 26.9766 39.7317C27.1306 39.7317 27.2831 39.7012 27.4253 39.642C27.5675 39.5828 27.6965 39.496 27.805 39.3866L34 33.1683C35.8487 31.3195 36.8873 28.812 36.8873 26.1975C36.8873 23.5829 35.8487 21.0754 34 19.2266ZM32.3316 31.5L27 36.855L21.6683 31.5C20.615 30.4457 19.8978 29.1028 19.6076 27.641C19.3174 26.1792 19.467 24.6642 20.0376 23.2874C20.6083 21.9107 21.5743 20.734 22.8135 19.9062C24.0528 19.0784 25.5096 18.6365 27 18.6365C28.4903 18.6365 29.9471 19.0784 31.1864 19.9062C32.4256 20.734 33.3916 21.9107 33.9623 23.2874C34.5329 24.6642 34.6826 26.1792 34.3923 27.641C34.1021 29.1028 33.385 30.4457 32.3316 31.5ZM23.5 22.645C22.5581 23.5897 22.0293 24.8693 22.0293 26.2033C22.0293 27.5373 22.5581 28.8169 23.5 29.7616C24.1997 30.4626 25.0908 30.9412 26.0616 31.1376C27.0323 31.334 28.0394 31.2393 28.9565 30.8655C29.8737 30.4917 30.66 29.8553 31.2169 29.0363C31.7737 28.2172 32.0763 27.252 32.0866 26.2616C32.0919 25.6004 31.9645 24.9448 31.712 24.3336C31.4595 23.7224 31.0871 23.1681 30.6166 22.7033C30.1542 22.2303 29.6029 21.8534 28.9943 21.5944C28.3857 21.3353 27.7319 21.1991 27.0704 21.1937C26.409 21.1883 25.753 21.3137 25.1403 21.5628C24.5275 21.8118 23.97 22.1796 23.5 22.645ZM28.9716 28.105C28.5295 28.5538 27.9452 28.8352 27.3186 28.9009C26.692 28.9667 26.062 28.8127 25.5364 28.4654C25.0107 28.1181 24.6221 27.5989 24.4368 26.9967C24.2515 26.3946 24.2812 25.7467 24.5207 25.164C24.7603 24.5813 25.1948 24.0998 25.75 23.802C26.3052 23.5042 26.9466 23.4085 27.5646 23.5312C28.1825 23.6539 28.7387 23.9875 29.1379 24.4749C29.5371 24.9623 29.7547 25.5733 29.7533 26.2033C29.7363 26.9235 29.4342 27.6074 28.9133 28.105H28.9716Z" fill="white"/>
</svg>
